<svg width="59" height="57" fill="none" xmlns="http://www.w3.org/2000/svg"><rect y=".255" width="59" height="56.523" rx="14" fill="#71357C"/><path d="M30.99 39.835a.807.807 0 01-.545-.192.808.808 0 01-.192-.544v-17.92l-5.312 4.096a.746.746 0 01-.544.16.679.679 0 01-.48-.288l-.832-1.056a.853.853 0 01-.16-.576.807.807 0 01.32-.48l6.976-5.376c.15-.107.288-.17.416-.192.128-.021.267-.032.416-.032h1.632a.64.64 0 01.512.224.692.692 0 01.192.512v20.928a.808.808 0 01-.192.544.692.692 0 01-.512.192H30.99z" fill="#fff"/></svg>