<svg width="59" height="58" fill="none" xmlns="http://www.w3.org/2000/svg"><rect y=".761" width="59" height="56.523" rx="14" fill="#F35D5D"/><path d="M31.896 40.34a.807.807 0 01-.544-.191.807.807 0 01-.192-.544v-4.608H20.792a.807.807 0 01-.544-.192.807.807 0 01-.192-.544v-1.28c0-.086.021-.214.064-.384.064-.192.16-.384.288-.576l9.6-13.536c.256-.363.65-.544 1.184-.544h2.304a.64.64 0 01.512.224.64.64 0 01.224.512v13.536h2.88c.234 0 .416.075.544.224a.64.64 0 01.224.512v1.312a.74.74 0 01-.224.544.692.692 0 01-.512.192h-2.912v4.608a.74.74 0 01-.224.544.692.692 0 01-.512.192h-1.6zm-8.416-8.063h7.712V21.3L23.48 32.277z" fill="#fff"/></svg>