<svg width="297" height="70" fill="none" xmlns="http://www.w3.org/2000/svg"><path d="M279.845 0H17.157C7.68 0 0 6.018 0 13.444v43.11C0 63.98 7.681 70 17.157 70h262.688C289.318 70 297 63.98 297 56.554v-43.11C297 6.018 289.318 0 279.845 0z" fill="#F35D5D"/><path d="M67.153 27.442l-7.994 7.94-23.47-23.894a3.958 3.958 0 014.069-.03l27.395 15.984zm.196 18.864l-27.592 16.1c-1.65.962-3.561.586-4.774-.571L59.158 37.94l8.19 8.365zm9.251-5.929l-7.91 4.615-.062.036-8.19-8.365 7.994-7.943.062.039 8.107 4.73c2.637 1.536 2.637 5.35 0 6.889zM33.703 60.556a3.924 3.924 0 01-1.222-2.875v-41.5c0-1.478.772-2.69 1.868-3.377l.061-.038 23.47 23.896-24.177 23.894zm88.763-17.973h-11.477v3.18h8.047a8.342 8.342 0 01-16.386-2.195 8.34 8.34 0 0113.983-6.14l2.25-2.247a11.475 11.475 0 00-7.894-3.133c-6.361 0-11.519 5.158-11.519 11.52 0 6.362 5.158 11.517 11.519 11.517 6.362 0 11.519-5.155 11.519-11.517 0-.332-.015-.661-.042-.985zm9.065 9.501c-2.226 0-4.031-1.948-4.031-4.351 0-2.404 1.805-4.354 4.031-4.354 2.227 0 4.032 1.95 4.032 4.354 0 2.403-1.805 4.351-4.032 4.351zm0-11.882c-4.068 0-7.366 3.32-7.366 7.413 0 4.096 3.298 7.413 7.366 7.413s7.366-3.317 7.366-7.413c0-4.094-3.298-7.413-7.366-7.413zm16.389 11.882c-2.226 0-4.032-1.948-4.032-4.351 0-2.404 1.806-4.354 4.032-4.354 2.227 0 4.032 1.95 4.032 4.354 0 2.403-1.805 4.351-4.032 4.351zm0-11.882c-4.068 0-7.366 3.32-7.366 7.413 0 4.096 3.298 7.413 7.366 7.413s7.366-3.317 7.366-7.413c0-4.094-3.298-7.413-7.366-7.413zm27.498-8.154v23.276h-3.179V32.048h3.179zm12.074 12.341l-7.223 2.828c.042-.458.158-.908.347-1.339a4.31 4.31 0 012.393-2.302 4.347 4.347 0 014.483.812zm.998 5.13a4.324 4.324 0 01-2.317 2.135 4.301 4.301 0 01-3.32-.064 4.319 4.319 0 01-1.692-1.314l10.801-4.23-.168-.563a7.466 7.466 0 00-4.194-4.752 7.47 7.47 0 00-5.748-.112 7.464 7.464 0 00-4.144 3.986 7.465 7.465 0 00-.112 5.75 7.462 7.462 0 003.986 4.144 7.48 7.48 0 003.007.633c.926 0 1.853-.175 2.741-.521a7.491 7.491 0 004.05-3.78l.281-.593-2.903-1.27-.268.551zm-24.872 2.565c-2.018 0-3.654-1.948-3.654-4.352 0-2.403 1.636-4.353 3.654-4.353s3.654 1.95 3.654 4.354c0 2.403-1.636 4.35-3.654 4.35zm3.784-11.883v1.306c-1.075-.823-2.379-1.306-3.784-1.306-3.687 0-6.675 3.32-6.675 7.413 0 4.097 2.988 7.414 6.675 7.414a6.18 6.18 0 003.784-1.306v1.602c0 .913-.659 3.457-3.659 3.457-2.999 0-3.844-2.68-3.844-2.68l-2.882 1.341s1.084 4.233 7.012 4.233c3.211 0 4.866-1.865 5.709-3.572a8.426 8.426 0 00.844-3.731v-14.17h-3.18zm38.755-8.153v23.276h-3.18V32.048h3.18zm4.451-.001v3.18c2.225 0 4.03 1.948 4.03 4.354 0 2.404-1.805 4.352-4.03 4.352v2.944c4.069 0 7.366-3.32 7.366-7.414 0-4.096-3.297-7.416-7.366-7.416z" fill="#fff"/><path d="M205.267 35.227h5.341v-3.18h-5.341v3.18zm0 11.65h5.341v-2.944h-5.341v2.944zm17.541-14.829v23.276h-3.179V32.048h3.179zm8.725 20.385a2.986 2.986 0 01-1.583.439c-.686 0-1.235-.181-1.63-.538-.403-.365-.609-.864-.609-1.49 0-.365.072-.694.212-.98.142-.29.367-.54.669-.74.294-.198.675-.346 1.133-.439a7.965 7.965 0 011.608-.143h1.668v2.599l-.055.063c-.475.535-.949.949-1.413 1.229zm1.665.858l.39-.42v2.226h2.678v-9.605c0-.892-.11-1.674-.321-2.319-.206-.63-.538-1.152-.988-1.547-.453-.404-1.043-.705-1.75-.9-.725-.198-1.614-.3-2.64-.3-.576 0-1.141.047-1.684.14a11.57 11.57 0 00-1.509.36 8.78 8.78 0 00-1.067.412l.17 2.516c.194-.1.417-.203.661-.31a9.746 9.746 0 011.347-.478 6.458 6.458 0 011.75-.22c.502 0 .933.056 1.279.16.362.112.658.29.881.53.219.235.378.532.471.883.091.334.135.724.135 1.163v1.037h-1.531c-1.174 0-2.217.09-3.098.266-.872.176-1.607.445-2.189.804-.568.354-1.001.807-1.287 1.344-.288.54-.433 1.188-.433 1.932 0 .686.115 1.292.343 1.802.225.505.546.936.952 1.279.411.346.908.609 1.47.785.574.178 1.21.266 1.896.266.823 0 1.583-.16 2.258-.475a5.925 5.925 0 001.816-1.33zm15.691-12.84l-2.324 5.372-1.427 3.303-.968-2.235-2.785-6.44h-3.465l4.519 10.442 1.007 2.33-2.623 6.406h3.465l2.28-5.794 1.731-4.006 4.055-9.378h-3.465zM118.764 23.38c0 .08-.006.146-.017.207a.44.44 0 01-.058.15.27.27 0 01-.094.094.217.217 0 01-.116.033h-5.396a.578.578 0 01-.33-.12c-.112-.08-.169-.229-.169-.443v-10.4c0-.214.057-.36.169-.442a.572.572 0 01.33-.118h5.316c.042 0 .08.008.116.03a.256.256 0 01.089.093.493.493 0 01.053.157c.012.063.018.134.018.216 0 .077-.006.146-.018.206a.442.442 0 01-.053.148.263.263 0 01-.089.088.215.215 0 01-.116.03h-4.729v4.053h4.079a.24.24 0 01.214.12c.023.039.041.09.053.151a1.173 1.173 0 010 .42.42.42 0 01-.053.137.217.217 0 01-.089.08.26.26 0 01-.125.027h-4.079v4.595h4.809c.042 0 .08.012.116.03a.318.318 0 01.094.091.399.399 0 01.058.151c.011.063.017.135.017.217zm9.716-10.542c0 .076-.006.145-.018.205a.442.442 0 01-.054.148.26.26 0 01-.088.088.217.217 0 01-.116.03h-3.438v10.377a.189.189 0 01-.027.098.18.18 0 01-.088.069.78.78 0 01-.17.047c-.071.01-.157.016-.258.016s-.187-.006-.258-.016a.768.768 0 01-.169-.047.178.178 0 01-.089-.069.189.189 0 01-.027-.098V13.309h-3.437a.212.212 0 01-.121-.03.278.278 0 01-.084-.088.442.442 0 01-.054-.148 1.067 1.067 0 01-.017-.205c0-.083.005-.154.017-.217a.493.493 0 01.054-.157.271.271 0 01.084-.093.212.212 0 01.121-.03h7.961c.041 0 .08.008.116.03a.253.253 0 01.088.093.493.493 0 01.054.157c.012.063.018.134.018.216zm7.044 10.848a.189.189 0 01-.027.098.178.178 0 01-.089.069.763.763 0 01-.164.047 1.73 1.73 0 01-.263.016 1.87 1.87 0 01-.258-.016.78.78 0 01-.17-.047.188.188 0 01-.089-.069.188.188 0 01-.026-.098v-11.17c0-.032.01-.065.031-.095a.194.194 0 01.098-.072 1.272 1.272 0 01.414-.063c.107 0 .194.005.263.02a.64.64 0 01.164.043.169.169 0 01.089.072c.018.03.027.063.027.096v11.169zm10.348-10.848c0 .076-.006.145-.018.205a.442.442 0 01-.054.148.26.26 0 01-.088.088.217.217 0 01-.116.03h-3.438v10.377a.198.198 0 01-.026.098.188.188 0 01-.089.069.78.78 0 01-.17.047c-.071.01-.157.016-.258.016s-.187-.006-.258-.016a.768.768 0 01-.169-.047.178.178 0 01-.089-.069.189.189 0 01-.027-.098V13.309h-3.437a.212.212 0 01-.121-.03.278.278 0 01-.084-.088.442.442 0 01-.054-.148 1.062 1.062 0 01-.018-.205c0-.083.006-.154.018-.217a.493.493 0 01.054-.157.271.271 0 01.084-.093.212.212 0 01.121-.03h7.961c.041 0 .08.008.116.03a.253.253 0 01.088.093.493.493 0 01.054.157c.012.063.018.134.018.216zm14.07 5.229a9.23 9.23 0 00-.191-1.92 4.489 4.489 0 00-.632-1.56 3.095 3.095 0 00-1.171-1.042c-.487-.252-1.09-.378-1.808-.378-.713 0-1.314.134-1.804.397a3.339 3.339 0 00-1.193 1.065 4.43 4.43 0 00-.659 1.558 8.556 8.556 0 00-.2 1.88c0 .7.061 1.352.182 1.953.122.604.328 1.128.619 1.572.291.445.68.793 1.167 1.045.487.253 1.095.379 1.826.379.724 0 1.332-.134 1.825-.403a3.355 3.355 0 001.193-1.087c.303-.455.52-.98.651-1.577a8.81 8.81 0 00.195-1.882zm1.158-.1c0 .92-.105 1.754-.316 2.498-.211.746-.527 1.382-.949 1.906a4.17 4.17 0 01-1.594 1.216c-.641.285-1.389.428-2.244.428-.854 0-1.589-.135-2.204-.406a3.864 3.864 0 01-1.514-1.158c-.394-.502-.685-1.114-.872-1.838-.187-.725-.281-1.542-.281-2.45 0-.903.104-1.72.312-2.456.208-.738.524-1.366.948-1.885a4.297 4.297 0 011.594-1.207c.638-.285 1.388-.428 2.249-.428.837 0 1.561.135 2.173.4a3.95 3.95 0 011.518 1.15c.401.5.698 1.106.891 1.816.192.714.289 1.518.289 2.415zm10.936 5.37a.66.66 0 01-.049.269.458.458 0 01-.294.266.689.689 0 01-.174.028h-.222c-.119 0-.228-.017-.325-.047a.814.814 0 01-.286-.154 1.647 1.647 0 01-.276-.299 5.169 5.169 0 01-.307-.48l-4.061-7.196a63.106 63.106 0 01-1.193-2.165h-.009c.006.434.009.878.009 1.333v8.794a.189.189 0 01-.027.098.178.178 0 01-.089.069.763.763 0 01-.164.047 1.73 1.73 0 01-.263.016 1.87 1.87 0 01-.258-.016.768.768 0 01-.169-.047.186.186 0 01-.09-.069.198.198 0 01-.026-.098V12.9c0-.214.056-.36.169-.442a.572.572 0 01.329-.118h.446c.142 0 .261.01.356.036a.723.723 0 01.258.118c.077.057.153.137.227.241.074.104.156.236.245.395l3.108 5.515c.196.343.382.674.557.993.175.315.345.628.512.933.166.307.33.609.494.905.163.296.325.595.485.9h.009c-.006-.5-.009-1.018-.009-1.558v-8.267a.18.18 0 01.027-.096.214.214 0 01.089-.077.545.545 0 01.165-.044 2.237 2.237 0 01.512 0 .566.566 0 01.169.044.25.25 0 01.093.077.16.16 0 01.032.096v10.785zM99.47 18.091a5.643 5.643 0 005.638 5.638 5.643 5.643 0 005.633-5.877h-5.366v1.098h4.207l-.092.337a4.55 4.55 0 01-4.382 3.347 4.548 4.548 0 01-4.541-4.543 4.547 4.547 0 014.541-4.54c1.057 0 2.07.364 2.881 1.031l.778-.78a5.61 5.61 0 00-3.659-1.35 5.645 5.645 0 00-5.638 5.639z" fill="#fff"/></svg>