<svg width="39" height="40" fill="none" xmlns="http://www.w3.org/2000/svg"><rect width="39" height="40" rx="6" fill="url(#paint0_linear_1_218)"/><path d="M16.255 20.051c0-1.842 1.455-3.336 3.25-3.336 1.797 0 3.253 1.494 3.253 3.336 0 1.843-1.456 3.337-3.252 3.337-1.796 0-3.252-1.494-3.252-3.337zm-1.759 0c0 2.839 2.243 5.14 5.01 5.14s5.01-2.301 5.01-5.14c0-2.838-2.243-5.14-5.01-5.14s-5.01 2.302-5.01 5.14zm9.047-5.343c0 .238.069.47.197.668.129.197.311.351.525.442a1.143 1.143 0 001.276-.26 1.23 1.23 0 00.254-1.309 1.195 1.195 0 00-.43-.539 1.15 1.15 0 00-.65-.202h-.001c-.31 0-.608.126-.828.351-.22.225-.343.53-.343.85zm-7.978 13.49c-.952-.044-1.469-.207-1.812-.344a3.027 3.027 0 01-1.122-.749 3.096 3.096 0 01-.73-1.15c-.134-.352-.292-.883-.336-1.859-.047-1.055-.056-1.372-.056-4.045 0-2.672.01-2.988.056-4.044.044-.976.203-1.506.336-1.859.177-.467.389-.8.73-1.151.34-.35.666-.568 1.122-.749.343-.137.86-.3 1.812-.344 1.028-.049 1.337-.059 3.94-.059 2.605 0 2.914.011 3.943.059.952.044 1.468.208 1.812.344.456.181.78.399 1.122.749.342.35.553.684.73 1.151.134.352.292.883.336 1.859.047 1.056.056 1.372.056 4.044 0 2.673-.01 2.99-.056 4.045-.044.976-.203 1.506-.336 1.859a3.11 3.11 0 01-.73 1.15c-.34.35-.666.567-1.122.75-.343.136-.86.299-1.812.343-1.028.049-1.337.059-3.942.059-2.605 0-2.913-.01-3.941-.059zm-.081-18.095c-1.039.049-1.748.218-2.368.465a4.773 4.773 0 00-1.728 1.155 4.904 4.904 0 00-1.126 1.772c-.24.637-.406 1.364-.453 2.43-.048 1.067-.059 1.408-.059 4.126 0 2.719.011 3.06.06 4.127.046 1.065.211 1.793.452 2.43a4.907 4.907 0 001.126 1.772 4.787 4.787 0 001.728 1.155c.62.247 1.33.416 2.368.465 1.04.048 1.373.06 4.022.06 2.65 0 2.982-.011 4.022-.06 1.039-.049 1.748-.218 2.368-.465a4.788 4.788 0 001.728-1.155 4.918 4.918 0 001.126-1.773c.24-.636.406-1.364.453-2.43.047-1.067.058-1.407.058-4.126 0-2.718-.011-3.059-.058-4.126-.048-1.066-.212-1.794-.453-2.43a4.936 4.936 0 00-1.126-1.772 4.764 4.764 0 00-1.727-1.155c-.621-.247-1.33-.417-2.368-.465-1.04-.048-1.373-.06-4.022-.06-2.65 0-2.983.01-4.023.06z" fill="#fff"/><defs><linearGradient id="paint0_linear_1_218" x1="38.25" y1="40" x2="-1.737" y2="1.012" gradientUnits="userSpaceOnUse"><stop stop-color="#FBE18A"/><stop offset=".21" stop-color="#FCBB45"/><stop offset=".38" stop-color="#F75274"/><stop offset=".52" stop-color="#D53692"/><stop offset=".74" stop-color="#8F39CE"/><stop offset="1" stop-color="#5B4FE9"/></linearGradient></defs></svg>