<svg width="59" height="57" fill="none" xmlns="http://www.w3.org/2000/svg"><rect y=".09" width="59" height="56.523" rx="14" fill="#95D0D5"/><path d="M21.915 39.67a.808.808 0 01-.544-.192.807.807 0 01-.192-.544V37.91c0-.192.053-.405.16-.64.106-.234.32-.49.64-.768l6.784-6.784c1.087-.917 1.94-1.696 2.56-2.336.64-.66 1.087-1.29 1.343-1.888a4.359 4.359 0 00.417-1.856c0-1.216-.342-2.176-1.024-2.88-.683-.725-1.696-1.088-3.04-1.088-.854 0-1.59.182-2.208.544a3.817 3.817 0 00-1.473 1.44 5.69 5.69 0 00-.672 2.048c-.042.278-.16.47-.352.576a.915.915 0 01-.48.16h-1.663a.724.724 0 01-.48-.16.614.614 0 01-.192-.448c.02-.81.192-1.62.512-2.432a6.855 6.855 0 011.408-2.24 7.36 7.36 0 012.335-1.6c.94-.426 2.027-.64 3.264-.64 1.686 0 3.062.31 4.129.928 1.087.598 1.888 1.398 2.4 2.4.512 1.003.768 2.102.768 3.296 0 .94-.16 1.803-.48 2.592-.32.768-.79 1.526-1.409 2.272-.597.726-1.343 1.472-2.24 2.24l-6.143 6.24h9.983c.235 0 .416.064.544.192.15.128.224.31.224.544v1.312a.74.74 0 01-.223.544c-.128.128-.31.192-.544.192H21.913z" fill="#fff"/></svg>