<svg width="59" height="58" fill="none" xmlns="http://www.w3.org/2000/svg"><rect y=".926" width="59" height="56.523" rx="14" fill="#FD7E50"/><path d="M29.428 40.826c-1.344 0-2.518-.16-3.52-.48-1.003-.341-1.846-.79-2.528-1.344-.683-.555-1.206-1.163-1.568-1.824a4.733 4.733 0 01-.544-2.048.55.55 0 01.192-.448.724.724 0 01.48-.16h1.568c.192 0 .363.043.512.128.15.085.277.267.384.544.213.768.576 1.365 1.088 1.792a4.713 4.713 0 001.824.896c.704.15 1.408.224 2.112.224 1.472 0 2.666-.352 3.584-1.056.917-.704 1.376-1.739 1.376-3.104 0-1.387-.416-2.379-1.248-2.976-.832-.598-1.984-.896-3.456-.896h-3.04a.807.807 0 01-.544-.192c-.128-.128-.192-.31-.192-.544v-.864c0-.192.032-.352.096-.48.085-.15.17-.277.256-.384l6.208-6.784h-9.44a.807.807 0 01-.544-.192c-.128-.128-.192-.31-.192-.544v-1.216c0-.235.064-.416.192-.544a.74.74 0 01.544-.224h12.768c.235 0 .416.074.544.224.15.128.224.31.224.544v1.152c0 .15-.043.288-.128.416a2.926 2.926 0 01-.224.32l-6.176 6.88.512.032c1.408.043 2.634.299 3.68.768 1.066.47 1.888 1.173 2.464 2.112.597.917.896 2.08.896 3.488 0 1.43-.352 2.656-1.056 3.68-.704 1.002-1.675 1.77-2.912 2.304-1.237.533-2.635.8-4.192.8z" fill="#fff"/></svg>