<svg width="40" height="40" fill="none" xmlns="http://www.w3.org/2000/svg"><rect width="40" height="40" rx="6" fill="#3CF"/><path d="M29.928 13.667a8.362 8.362 0 01-2.066.59c.332-.057.821-.656 1.016-.899.296-.365.521-.783.665-1.23 0-.034.033-.082 0-.105a.115.115 0 00-.11 0c-.771.418-1.593.737-2.445.95a.17.17 0 01-.171-.043 2.386 2.386 0 00-.214-.223 4.456 4.456 0 00-1.168-.756 4.105 4.105 0 00-1.819-.3 4.4 4.4 0 00-1.729.476c-.53.29-.994.685-1.367 1.16a4.391 4.391 0 00-.831 1.664 4.572 4.572 0 00-.043 1.758c0 .1 0 .114-.086.1-3.386-.499-6.164-1.702-8.434-4.283-.1-.114-.152-.114-.233 0-.988 1.502-.508 3.88.727 5.053a7.8 7.8 0 00.517.452 4.239 4.239 0 01-1.624-.452c-.095-.062-.147-.028-.152.086a2.794 2.794 0 000 .475 4.317 4.317 0 002.66 3.441c.172.075.352.13.536.167a4.856 4.856 0 01-1.59.047c-.115-.023-.157.038-.115.148.698 1.901 2.213 2.481 3.325 2.804.152.024.304.024.475.062l-.029.028c-.327.6-1.652 1.003-2.26 1.213a8.12 8.12 0 01-3.467.447c-.185-.03-.228-.024-.276 0-.047.023 0 .076.053.123a11.363 11.363 0 003.04 1.378c4.169 1.15 8.86.305 11.99-2.809 2.46-2.443 3.325-5.813 3.325-9.188 0-.128.157-.204.247-.27a8.157 8.157 0 001.629-1.703.5.5 0 00.114-.342c0-.071 0-.057-.09-.019z" fill="#fff"/></svg>